# xmcd
#
# Track frame offsets:
#	150
#	13767
#	29002
#	43335
#	61182
#	81167
#	97565
#	115007
#	126327
#	138052
#	156147
#	173532
#	196545
#
# Disc length: 3003 seconds
#
# Revision: 0
# Processed by: cddbd v1.5.1PL2 Copyright (c) Steve Scherf et al.
# Submitted via: EasyCDDAExtractor 9.0.0.1
#
DISCID=990bb90d
DTITLE=Lannie Garrett (Patsy DeCline) - Horsin' Around
DYEAR=1900
DGENRE=Country
TTITLE0=I'm a One Woman Man
TTITLE1=Ghost Riders in the Sky
TTITLE2=If You've Got the Money, I've Got the Time
TTITLE3=Good Enough for Now
TTITLE4=The Bottle Let Me Down
TTITLE5=Help Me Make it Through the Yard
TTITLE6=White Lightning
TTITLE7=Stand by Your Man
TTITLE8=That's All Right
TTITLE9=8 to the Bar
TTITLE10=Glory, Glory, Hallejulah
TTITLE11=I'm Movin' On
TTITLE12=Bartender's Blues
EXTD=
EXTT0=
EXTT1=
EXTT2=
EXTT3=
EXTT4=
EXTT5=
EXTT6=
EXTT7=
EXTT8=
EXTT9=
EXTT10=
EXTT11=
EXTT12=
PLAYORDER=
